<svg xmlns="http://www.w3.org/2000/svg" viewBox="0 0 128 128" width="128" height="128">
  <defs>
    <linearGradient id="grad1" x1="0%" y1="0%" x2="100%" y2="100%">
      <stop offset="0%" style="stop-color:#9146FF;stop-opacity:1" />
      <stop offset="100%" style="stop-color:#772CE8;stop-opacity:1" />
    </linearGradient>
  </defs>

  <!-- Background circle -->
  <circle cx="64" cy="64" r="60" fill="url(#grad1)"/>

  <!-- Twitch logo simplified -->
  <g fill="white">
    <!-- Main body -->
    <path d="M35 25 L30 35 L30 85 L40 85 L40 95 L50 85 L60 85 L85 60 L85 25 Z M80 57 L70 67 L60 67 L52 75 L52 67 L42 67 L42 30 L80 30 Z"/>

    <!-- Chat boxes -->
    <rect x="55" y="40" width="8" height="15"/>
    <rect x="68" y="40" width="8" height="15"/>
  </g>

  <!-- Drop/gift icon overlay -->
  <g transform="translate(85, 85)">
    <circle cx="15" cy="15" r="18" fill="#18181B" stroke="#9146FF" stroke-width="2"/>
    <path d="M15 8 L18 12 L22 12 L22 28 L8 28 L8 12 L12 12 Z" fill="#FFD700"/>
    <path d="M12 8 C12 6 13 5 15 5 C17 5 18 6 18 8" stroke="#FFD700" stroke-width="2" fill="none"/>
  </g>
</svg>
